<svg width="157" height="28" viewBox="0 0 157 28" fill="none" xmlns="http://www.w3.org/2000/svg">
<path d="M9.188 7.92C11.66 7.92 13.556 8.544 14.876 9.792C16.196 11.016 16.856 12.84 16.856 15.264V27H14.408V24.048C13.832 25.032 12.98 25.8 11.852 26.352C10.748 26.904 9.428 27.18 7.892 27.18C5.78 27.18 4.1 26.676 2.852 25.668C1.604 24.66 0.98 23.328 0.98 21.672C0.98 20.064 1.556 18.768 2.708 17.784C3.884 16.8 5.744 16.308 8.288 16.308H14.3V15.156C14.3 13.524 13.844 12.288 12.932 11.448C12.02 10.584 10.688 10.152 8.936 10.152C7.736 10.152 6.584 10.356 5.48 10.764C4.376 11.148 3.428 11.688 2.636 12.384L1.484 10.476C2.444 9.66 3.596 9.036 4.94 8.604C6.284 8.148 7.7 7.92 9.188 7.92ZM8.288 25.164C9.728 25.164 10.964 24.84 11.996 24.192C13.028 23.52 13.796 22.56 14.3 21.312V18.216H8.36C5.12 18.216 3.5 19.344 3.5 21.6C3.5 22.704 3.92 23.58 4.76 24.228C5.6 24.852 6.776 25.164 8.288 25.164ZM33.5544 7.92C35.3304 7.92 36.9384 8.328 38.3784 9.144C39.8184 9.936 40.9464 11.064 41.7624 12.528C42.5784 13.992 42.9864 15.66 42.9864 17.532C42.9864 19.404 42.5784 21.072 41.7624 22.536C40.9464 24 39.8184 25.14 38.3784 25.956C36.9384 26.772 35.3304 27.18 33.5544 27.18C31.9704 27.18 30.5424 26.844 29.2704 26.172C28.0224 25.5 27.0144 24.528 26.2464 23.256V27H23.7984V0.287998H26.3544V11.664C27.1464 10.44 28.1544 9.516 29.3784 8.892C30.6264 8.244 32.0184 7.92 33.5544 7.92ZM33.3744 24.912C34.6944 24.912 35.8944 24.612 36.9744 24.012C38.0544 23.388 38.8944 22.512 39.4944 21.384C40.1184 20.256 40.4304 18.972 40.4304 17.532C40.4304 16.092 40.1184 14.808 39.4944 13.68C38.8944 12.552 38.0544 11.688 36.9744 11.088C35.8944 10.464 34.6944 10.152 33.3744 10.152C32.0304 10.152 30.8184 10.464 29.7384 11.088C28.6824 11.688 27.8424 12.552 27.2184 13.68C26.6184 14.808 26.3184 16.092 26.3184 17.532C26.3184 18.972 26.6184 20.256 27.2184 21.384C27.8424 22.512 28.6824 23.388 29.7384 24.012C30.8184 24.612 32.0304 24.912 33.3744 24.912ZM55.9368 27.18C54.1128 27.18 52.4688 26.772 51.0048 25.956C49.5408 25.116 48.3888 23.964 47.5488 22.5C46.7088 21.036 46.2888 19.38 46.2888 17.532C46.2888 15.684 46.7088 14.028 47.5488 12.564C48.3888 11.1 49.5408 9.96 51.0048 9.144C52.4688 8.328 54.1128 7.92 55.9368 7.92C57.7608 7.92 59.4048 8.328 60.8688 9.144C62.3328 9.96 63.4728 11.1 64.2888 12.564C65.1288 14.028 65.5488 15.684 65.5488 17.532C65.5488 19.38 65.1288 21.036 64.2888 22.5C63.4728 23.964 62.3328 25.116 60.8688 25.956C59.4048 26.772 57.7608 27.18 55.9368 27.18ZM55.9368 24.912C57.2808 24.912 58.4808 24.612 59.5368 24.012C60.6168 23.388 61.4568 22.512 62.0568 21.384C62.6568 20.256 62.9568 18.972 62.9568 17.532C62.9568 16.092 62.6568 14.808 62.0568 13.68C61.4568 12.552 60.6168 11.688 59.5368 11.088C58.4808 10.464 57.2808 10.152 55.9368 10.152C54.5928 10.152 53.3808 10.464 52.3008 11.088C51.2448 11.688 50.4048 12.552 49.7808 13.68C49.1808 14.808 48.8808 16.092 48.8808 17.532C48.8808 18.972 49.1808 20.256 49.7808 21.384C50.4048 22.512 51.2448 23.388 52.3008 24.012C53.3808 24.612 54.5928 24.912 55.9368 24.912ZM87.8311 8.064V27H85.3831V23.544C84.7111 24.696 83.7871 25.596 82.6111 26.244C81.4351 26.868 80.0911 27.18 78.5791 27.18C76.1071 27.18 74.1511 26.496 72.7111 25.128C71.2951 23.736 70.5871 21.708 70.5871 19.044V8.064H73.1431V18.792C73.1431 20.784 73.6351 22.296 74.6191 23.328C75.6031 24.36 77.0071 24.876 78.8311 24.876C80.8231 24.876 82.3951 24.276 83.5471 23.076C84.6991 21.852 85.2751 20.16 85.2751 18V8.064H87.8311ZM104.962 25.848C104.482 26.28 103.882 26.616 103.162 26.856C102.466 27.072 101.734 27.18 100.966 27.18C99.1898 27.18 97.8218 26.7 96.8618 25.74C95.9018 24.78 95.4218 23.424 95.4218 21.672V10.224H92.0378V8.064H95.4218V3.924H97.9778V8.064H103.738V10.224H97.9778V21.528C97.9778 22.656 98.2538 23.52 98.8058 24.12C99.3818 24.696 100.198 24.984 101.254 24.984C101.782 24.984 102.286 24.9 102.766 24.732C103.27 24.564 103.702 24.324 104.062 24.012L104.962 25.848ZM136.101 8.064V27H133.653V23.544C132.981 24.696 132.057 25.596 130.881 26.244C129.705 26.868 128.361 27.18 126.849 27.18C124.377 27.18 122.421 26.496 120.981 25.128C119.565 23.736 118.857 21.708 118.857 19.044V8.064H121.413V18.792C121.413 20.784 121.905 22.296 122.889 23.328C123.873 24.36 125.277 24.876 127.101 24.876C129.093 24.876 130.665 24.276 131.817 23.076C132.969 21.852 133.545 20.16 133.545 18V8.064H136.101ZM148.335 27.18C146.799 27.18 145.323 26.964 143.907 26.532C142.515 26.076 141.423 25.512 140.631 24.84L141.783 22.824C142.575 23.448 143.571 23.964 144.771 24.372C145.971 24.756 147.219 24.948 148.515 24.948C150.243 24.948 151.515 24.684 152.331 24.156C153.171 23.604 153.591 22.836 153.591 21.852C153.591 21.156 153.363 20.616 152.907 20.232C152.451 19.824 151.875 19.524 151.179 19.332C150.483 19.116 149.559 18.912 148.407 18.72C146.871 18.432 145.635 18.144 144.699 17.856C143.763 17.544 142.959 17.028 142.287 16.308C141.639 15.588 141.315 14.592 141.315 13.32C141.315 11.736 141.975 10.44 143.295 9.432C144.615 8.424 146.451 7.92 148.803 7.92C150.027 7.92 151.251 8.088 152.475 8.424C153.699 8.736 154.707 9.156 155.499 9.684L154.383 11.736C152.823 10.656 150.963 10.116 148.803 10.116C147.171 10.116 145.935 10.404 145.095 10.98C144.279 11.556 143.871 12.312 143.871 13.248C143.871 13.968 144.099 14.544 144.555 14.976C145.035 15.408 145.623 15.732 146.319 15.948C147.015 16.14 147.975 16.344 149.199 16.56C150.711 16.848 151.923 17.136 152.835 17.424C153.747 17.712 154.527 18.204 155.175 18.9C155.823 19.596 156.147 20.556 156.147 21.78C156.147 23.436 155.451 24.756 154.059 25.74C152.691 26.7 150.783 27.18 148.335 27.18Z" fill="#323264"/>
</svg>
