<svg width="136" height="25" viewBox="0 0 136 25" fill="none" xmlns="http://www.w3.org/2000/svg">
<path d="M10.412 24.18C8.54 24.18 6.86 23.772 5.372 22.956C3.908 22.14 2.756 21 1.916 19.536C1.076 18.048 0.656 16.38 0.656 14.532C0.656 12.684 1.076 11.028 1.916 9.564C2.756 8.1 3.908 6.96 5.372 6.144C6.86 5.328 8.54 4.92 10.412 4.92C12.044 4.92 13.496 5.244 14.768 5.892C16.064 6.516 17.084 7.44 17.828 8.664L15.92 9.96C15.296 9.024 14.504 8.328 13.544 7.872C12.584 7.392 11.54 7.152 10.412 7.152C9.044 7.152 7.808 7.464 6.704 8.088C5.624 8.688 4.772 9.552 4.148 10.68C3.548 11.808 3.248 13.092 3.248 14.532C3.248 15.996 3.548 17.292 4.148 18.42C4.772 19.524 5.624 20.388 6.704 21.012C7.808 21.612 9.044 21.912 10.412 21.912C11.54 21.912 12.584 21.684 13.544 21.228C14.504 20.772 15.296 20.076 15.92 19.14L17.828 20.436C17.084 21.66 16.064 22.596 14.768 23.244C13.472 23.868 12.02 24.18 10.412 24.18ZM30.2728 24.18C28.4488 24.18 26.8048 23.772 25.3408 22.956C23.8768 22.116 22.7248 20.964 21.8848 19.5C21.0448 18.036 20.6248 16.38 20.6248 14.532C20.6248 12.684 21.0448 11.028 21.8848 9.564C22.7248 8.1 23.8768 6.96 25.3408 6.144C26.8048 5.328 28.4488 4.92 30.2728 4.92C32.0968 4.92 33.7408 5.328 35.2048 6.144C36.6688 6.96 37.8088 8.1 38.6248 9.564C39.4648 11.028 39.8848 12.684 39.8848 14.532C39.8848 16.38 39.4648 18.036 38.6248 19.5C37.8088 20.964 36.6688 22.116 35.2048 22.956C33.7408 23.772 32.0968 24.18 30.2728 24.18ZM30.2728 21.912C31.6168 21.912 32.8168 21.612 33.8728 21.012C34.9528 20.388 35.7928 19.512 36.3928 18.384C36.9928 17.256 37.2928 15.972 37.2928 14.532C37.2928 13.092 36.9928 11.808 36.3928 10.68C35.7928 9.552 34.9528 8.688 33.8728 8.088C32.8168 7.464 31.6168 7.152 30.2728 7.152C28.9288 7.152 27.7168 7.464 26.6368 8.088C25.5808 8.688 24.7408 9.552 24.1168 10.68C23.5168 11.808 23.2168 13.092 23.2168 14.532C23.2168 15.972 23.5168 17.256 24.1168 18.384C24.7408 19.512 25.5808 20.388 26.6368 21.012C27.7168 21.612 28.9288 21.912 30.2728 21.912ZM54.7511 4.92C57.1271 4.92 59.0111 5.616 60.4031 7.008C61.8191 8.376 62.5271 10.38 62.5271 13.02V24H59.9711V13.272C59.9711 11.304 59.4791 9.804 58.4951 8.772C57.5111 7.74 56.1071 7.224 54.2831 7.224C52.2431 7.224 50.6231 7.836 49.4231 9.06C48.2471 10.26 47.6591 11.928 47.6591 14.064V24H45.1031V5.064H47.5511V8.556C48.2471 7.404 49.2071 6.516 50.4311 5.892C51.6791 5.244 53.1191 4.92 54.7511 4.92ZM79.4383 22.848C78.9583 23.28 78.3583 23.616 77.6383 23.856C76.9423 24.072 76.2103 24.18 75.4423 24.18C73.6663 24.18 72.2983 23.7 71.3383 22.74C70.3783 21.78 69.8983 20.424 69.8983 18.672V7.224H66.5143V5.064H69.8983V0.923999H72.4543V5.064H78.2143V7.224H72.4543V18.528C72.4543 19.656 72.7303 20.52 73.2823 21.12C73.8583 21.696 74.6743 21.984 75.7303 21.984C76.2583 21.984 76.7623 21.9 77.2423 21.732C77.7463 21.564 78.1783 21.324 78.5383 21.012L79.4383 22.848ZM90.7153 4.92C93.1873 4.92 95.0833 5.544 96.4033 6.792C97.7233 8.016 98.3833 9.84 98.3833 12.264V24H95.9353V21.048C95.3593 22.032 94.5073 22.8 93.3793 23.352C92.2753 23.904 90.9553 24.18 89.4193 24.18C87.3073 24.18 85.6273 23.676 84.3793 22.668C83.1313 21.66 82.5073 20.328 82.5073 18.672C82.5073 17.064 83.0833 15.768 84.2353 14.784C85.4113 13.8 87.2713 13.308 89.8153 13.308H95.8273V12.156C95.8273 10.524 95.3713 9.288 94.4593 8.448C93.5473 7.584 92.2153 7.152 90.4633 7.152C89.2633 7.152 88.1113 7.356 87.0073 7.764C85.9033 8.148 84.9553 8.688 84.1633 9.384L83.0113 7.476C83.9713 6.66 85.1233 6.036 86.4673 5.604C87.8113 5.148 89.2273 4.92 90.7153 4.92ZM89.8153 22.164C91.2553 22.164 92.4913 21.84 93.5233 21.192C94.5553 20.52 95.3233 19.56 95.8273 18.312V15.216H89.8873C86.6473 15.216 85.0273 16.344 85.0273 18.6C85.0273 19.704 85.4473 20.58 86.2873 21.228C87.1273 21.852 88.3033 22.164 89.8153 22.164ZM113.244 24.18C111.372 24.18 109.692 23.772 108.204 22.956C106.74 22.14 105.588 21 104.748 19.536C103.908 18.048 103.488 16.38 103.488 14.532C103.488 12.684 103.908 11.028 104.748 9.564C105.588 8.1 106.74 6.96 108.204 6.144C109.692 5.328 111.372 4.92 113.244 4.92C114.876 4.92 116.328 5.244 117.6 5.892C118.896 6.516 119.916 7.44 120.66 8.664L118.752 9.96C118.128 9.024 117.336 8.328 116.376 7.872C115.416 7.392 114.372 7.152 113.244 7.152C111.876 7.152 110.64 7.464 109.536 8.088C108.456 8.688 107.604 9.552 106.98 10.68C106.38 11.808 106.08 13.092 106.08 14.532C106.08 15.996 106.38 17.292 106.98 18.42C107.604 19.524 108.456 20.388 109.536 21.012C110.64 21.612 111.876 21.912 113.244 21.912C114.372 21.912 115.416 21.684 116.376 21.228C117.336 20.772 118.128 20.076 118.752 19.14L120.66 20.436C119.916 21.66 118.896 22.596 117.6 23.244C116.304 23.868 114.852 24.18 113.244 24.18ZM135.864 22.848C135.384 23.28 134.784 23.616 134.064 23.856C133.368 24.072 132.636 24.18 131.868 24.18C130.092 24.18 128.724 23.7 127.764 22.74C126.804 21.78 126.324 20.424 126.324 18.672V7.224H122.94V5.064H126.324V0.923999H128.88V5.064H134.64V7.224H128.88V18.528C128.88 19.656 129.156 20.52 129.708 21.12C130.284 21.696 131.1 21.984 132.156 21.984C132.684 21.984 133.188 21.9 133.668 21.732C134.172 21.564 134.604 21.324 134.964 21.012L135.864 22.848Z" fill="#323264"/>
</svg>
