<?xml version="1.0" encoding="utf-8"?>
<!-- Generator: Adobe Illustrator 24.0.2, SVG Export Plug-In . SVG Version: 6.00 Build 0)  -->
<svg version="1.1" id="Слой_1" xmlns="http://www.w3.org/2000/svg" xmlns:xlink="http://www.w3.org/1999/xlink" x="0px" y="0px"
	 viewBox="0 0 64 64" style="enable-background:new 0 0 64 64;" xml:space="preserve">
<style type="text/css">
	.st0{fill:#020202;}
</style>
<path class="st0" d="M23.7,28.1c1.1,0,2-0.9,2-2v-7.8c0-3.5,2.8-6.3,6.3-6.3s6.3,2.8,6.3,6.3v7.8c0,1.1,0.9,2,2,2c1.1,0,2-0.9,2-2
	v-7.8C42.4,12.6,37.8,8,32.1,8c-5.7,0-10.3,4.6-10.3,10.3v7.8C21.7,27.2,22.6,28.1,23.7,28.1z"/>
<path class="st0" d="M55,23.6H44.4v2.5c0,2.2-1.8,4-4,4c-2.2,0-4-1.8-4-4v-2.5h-8.6v2.5c0,2.2-1.8,4-4,4c-2.2,0-4-1.8-4-4v-2.5H9
	c-0.5,0-0.9,0.4-0.8,1l7,28.5c0.4,1.6,2.1,2.9,3.8,2.9h26c1.7,0,3.3-1.3,3.8-2.9l7-28.5C55.9,24.1,55.5,23.6,55,23.6z M39.8,48.4
	c0,1.5-1.3,2.8-2.8,2.8h-4.7c-1.5,0-2.9-0.6-4-1.6l-2.2-2.2L23,45.9c0-1.3,1-1.7,2.1-1.7c0.9,0,1.7,0.1,3.5,1V34.4
	c0-0.8,0.6-1.4,1.4-1.4s1.4,0.6,1.4,1.4V40c0-0.8,0.6-1.4,1.4-1.4c0.8,0,1.4,0.6,1.4,1.4v1.7c0-0.8,0.6-2.4,1.4-2.4
	c0.8,0,1.4,0.6,1.4,1.4c0,0,0,1,0.1,1.1c0.2-0.5,0.7-1.8,1.3-1.8c0.8,0,1.4,0.6,1.4,1.4V48.4z"/>
</svg>
